# Blender v2.70 (sub 0) OBJ File: 'stoneBox.blend'
# www.blender.org
mtllib stoneBox2.mtl
o Cube
v 1.606799 -2.907331 -1.606799
v 1.606799 -2.907331 1.606799
v -1.606799 -2.907331 1.606798
v -1.606798 -2.907331 -1.606799
v 1.606799 2.907331 -1.606798
v 1.606798 2.907331 1.606799
v -1.606799 2.907331 1.606798
v -1.606798 2.907331 -1.606799
vt 0.666666 0.500000
vt 0.666667 0.776336
vt 0.333333 0.776336
vt 0.000000 0.776336
vt 0.000000 0.500000
vt 0.333333 0.500000
vt 0.666667 0.500000
vt 1.000000 0.500000
vt 1.000000 1.000000
vt 0.000000 0.000000
vt 0.333333 0.000000
vt 0.666667 0.000000
vt 1.000000 0.000000
vt 0.666667 1.000000
vn 0.000000 -1.000000 0.000000
vn 0.000000 1.000000 0.000000
vn 1.000000 0.000000 0.000001
vn -0.000001 0.000000 1.000000
vn -1.000000 0.000000 -0.000000
vn 0.000000 0.000000 -1.000000
vn 1.000000 -0.000000 0.000000
vn 0.000000 -0.000000 1.000000
usemtl Material
s off
f 1/1/1 2/2/1 3/3/1
f 5/4/2 8/5/2 7/6/2
f 5/7/3 6/8/3 2/9/3
f 6/10/4 7/11/4 3/6/4
f 3/6/5 7/11/5 8/12/5
f 1/12/6 4/13/6 8/8/6
f 4/6/1 1/1/1 3/3/1
f 6/3/2 5/4/2 7/6/2
f 1/14/7 5/7/7 2/9/7
f 2/5/8 6/10/8 3/6/8
f 4/7/5 3/6/5 8/12/5
f 5/7/6 1/12/6 8/8/6
