# Blender v2.70 (sub 0) OBJ File: 'wall.blend'
# www.blender.org
mtllib wall.mtl
o Plane
v 20.008764 8.003689 -0.049563
v -20.008764 8.003689 -0.049563
v 20.008764 0.000000 -0.049562
v -20.008764 0.000000 -0.049562
v 20.008764 0.000000 -0.000461
v -20.008764 0.000000 -0.000461
vt 0.993901 1.000000
vt 0.000000 1.000000
vt 0.000000 0.000000
vt 1.000000 1.000000
vt 0.993903 1.000000
vt 0.993901 0.000000
vt 0.999999 0.000000
vn 0.000000 0.000000 1.000000
vn 0.000000 1.000000 0.000000
usemtl Material.001
s off
f 3/1/1 1/2/1 2/3/1
f 5/4/2 3/5/2 4/6/2
f 4/6/1 3/1/1 2/3/1
f 6/7/2 5/4/2 4/6/2
